<svg id="Layer_1" data-name="Layer 1" xmlns="http://www.w3.org/2000/svg" viewBox="0 0 1366 768"><defs><style>.cls-1{fill:#ccccce;}.cls-2{fill:#e8e8ea;}.cls-3{fill:#f5f5f5;}</style></defs><title>Artboard 1</title><rect class="cls-1" width="1366" height="768"/><path class="cls-2" d="M766.71,768H84.79A84.79,84.79,0,0,1,0,683.21V84.79A84.79,84.79,0,0,1,84.79,0h999.65c117.35,0,185.26,133,116.45,228.07L835.39,732.93A84.79,84.79,0,0,1,766.71,768Z"/><path class="cls-3" d="M128.31,768h0A128.31,128.31,0,0,1,0,639.69V304.84C0,136.48,136.48,0,304.84,0h497C899.7,0,961.54,105.14,914,190.67l-95.18,171.2A790,790,0,0,1,128.31,768Z"/><path class="cls-1" d="M707.71,345.56C653.18,450,574.21,534.62,480.82,593.12S279.62,684,167.41,684C112,684,67,636.13,67,577.07V298C67,157.73,173.8,44,305.53,44H541.17C686.49,44,778.33,210.29,707.71,345.56Z"/></svg>