<svg id="Layer_1" data-name="Layer 1" xmlns="http://www.w3.org/2000/svg" viewBox="0 0 404 235"><defs><style>.cls-1{fill:#f4f2f2;}.cls-2{fill:#494949;}.cls-3{fill:#7a7a7a;}.cls-4{fill:#d8d6d6;}</style></defs><title>Artboard 1kk</title><path class="cls-1" d="M337.57,186.78H66.43v-157A4.76,4.76,0,0,1,71.19,25H332.81a4.76,4.76,0,0,1,4.76,4.76Z"/><rect class="cls-2" x="36" y="185.87" width="333" height="6.92"/><path class="cls-3" d="M42.92,198.54a6.79,6.79,0,0,1-6.79-6.66H368.87a6.79,6.79,0,0,1-6.79,6.66Z"/><path d="M368.75,192a6.69,6.69,0,0,1-6.67,6.42H42.92A6.69,6.69,0,0,1,36.25,192h332.5m.25-.25H36a6.92,6.92,0,0,0,6.92,6.92H362.08a6.92,6.92,0,0,0,6.92-6.92Z"/><rect class="cls-4" x="74.43" y="33.51" width="255.87" height="146.88"/></svg>